<?xml version="1.0" encoding="UTF-8"?>
<svg id="Layer_1" data-name="Layer 1" xmlns="http://www.w3.org/2000/svg" viewBox="0 0 300 300">
  <defs>
    <style>
      .cls-1 {
        fill: #71997c;
      }

      .cls-2 {
        fill: #292929;
      }
    </style>
  </defs>
  <g>
    <path class="cls-1" d="M52.33,241.59c-4.64,4.64-9.27,6.59-14.27,7.06-.62.21-1.29.31-1.96.31-1.44,0-2.73-.51-3.66-1.13-.41-.26-.82-.57-1.18-.88-.36-.36-.57-.72-.57-1.13,0-.88.77-1.65,1.65-1.65.31,0,.67.15.98.41.26.26.46.41.77.62.57.36,1.29.67,2.01.67,4.12,0,7.01-6.44,7.01-10.35,0-.93-.52-1.44-1.39-1.44-2.16,0-6.85,5.82-8.29,7.47-.77.88-1.85,2.22-3.14,3.86-2.68,8.19-6.03,15.71-8.5,18.13-.57.57-1.13.77-1.65.77-1.18,0-2.16-1.24-2.16-2.37,0-3.09,4.38-11.33,9.79-18.34.67-2.11,1.34-4.28,1.85-6.18-1.24,1.44-2.52,2.83-3.86,4.17-.31.31-.72.46-1.08.46-.82,0-1.55-.72-1.55-1.54,0-.36.1-.72.46-1.08l.82-.82c1.34-1.34,4.12-4.69,5.25-6.03.41-.52,1.13-.82,1.8-.82.62,0,2.11.36,2.16,2.06,0,.72-.46,2.27-.93,3.76,1.39-1.6,2.68-2.88,3.71-3.86,1.55-1.44,3.35-2.73,5.31-2.73,2.73,0,4.48,2.01,4.48,4.53,0,2.73-1.08,6.03-2.83,8.65,2.27-.98,4.53-2.47,6.8-4.74l.82-.82c.31-.31.72-.46,1.08-.46.82,0,1.55.72,1.55,1.55,0,.36-.1.72-.46,1.08l-.82.82Z"/>
    <path class="cls-1" d="M78.86,240.76l-.82.82c-4.48,4.48-8.55,7.21-11.08,7.21-1.6,0-2.73-1.13-2.73-2.73,0-3.81,4.74-7.62,4.74-11.18,0-.77-.21-1.08-1.13-1.08-2.73,0-8.65,6.59-13.7,15.14-.36.62-.93.93-1.44.93-.77,0-1.49-.67-1.49-1.54,0-.26.05-.52.15-.77.77-1.8,1.65-4.48,2.52-7.52-.26.26-.46.46-.72.72l-.82.82c-.36.36-.72.52-1.08.52-.82,0-1.6-.77-1.6-1.6,0-.36.15-.72.51-1.08l.82-.82c1.49-1.49,3.19-3.4,4.89-5.41,2.11-6.9,7.16-16.59,8.81-17.62.31-.21.93-.46,1.39-.46,1.49,0,2.27,1.24,2.27,2.52,0,2.27-4.48,10.61-9.68,17-.31,1.18-.67,2.42-.98,3.66,3.5-4.33,7.21-7.57,10.15-7.57,2.47,0,4.22,1.55,4.22,4.17,0,3.4-2.01,5.51-3.45,7.88-.72,1.19-1.29,2.22-1.29,2.68,0,.1.05.26.15.26.77,0,3.25-1.75,4.74-2.99,1.08-.88,2.32-1.96,3.66-3.3l.82-.82c.36-.36.72-.52,1.08-.52.82,0,1.6.77,1.6,1.6,0,.36-.15.72-.52,1.08Z"/>
    <path class="cls-1" d="M102.3,240.76l-.82.82c-2.01,2.01-4.48,3.45-6.95,3.45-.72,0-1.44-.16-2.16-.41-1.55,3.81-5.31,6.9-8.76,6.9-3.71,0-5.15-2.99-5.15-5.87,0-1.6.41-3.86,1.44-5.92l-1.91,1.85c-.36.36-.72.52-1.08.52-.82,0-1.6-.77-1.6-1.6,0-.36.15-.72.52-1.08l.82-.82c4.38-4.38,8.45-6.54,12.41-6.54.36,0,.41,0,.88.05.98.1,1.44.82,1.44,1.55,0,.31-.1.57-.26.82,1.91.46,2.52,2.47,2.52,4.17,0,.82-.1,1.86-.31,2.94.46.21.98.36,1.44.36,1.49,0,3.04-1.03,4.53-2.52l.82-.82c.36-.36.72-.52,1.08-.52.82,0,1.6.77,1.6,1.6,0,.36-.15.72-.52,1.08ZM88.59,237.26c0-1.08.1-1.54.41-2.11-3.66.21-7.47,5.87-7.47,10.51,0,2.01.77,2.78,2.06,2.78,2.27,0,5.2-2.52,6.34-5.98-.98-1.96-1.34-3.76-1.34-5.2Z"/>
    <path class="cls-1" d="M115.53,240.76l-.82.82c-5.62,5.62-8.35,7.16-11.02,7.16-2.42,0-4.64-1.86-4.64-5.25,0-2.27,1.6-5.67,3.55-9.12h-1.29c-1.03,0-1.55-.77-1.55-1.54s.52-1.55,1.55-1.55h2.94c2.58-4.84,4.58-8.34,4.79-8.76.31-.57.77-.82,1.29-.82.82,0,1.6.62,1.6,1.49,0,.26-.05.51-.21.77l-3.97,7.31h3.71c1.03,0,1.54.77,1.54,1.55s-.51,1.54-1.54,1.54h-5.31c-3.3,5.62-4.02,7.98-4.02,9.12,0,1.8.93,2.16,1.55,2.16,1.24,0,3.19-.57,8.86-6.23l.82-.82c.36-.36.72-.52,1.08-.52.82,0,1.6.77,1.6,1.6,0,.36-.15.72-.52,1.08Z"/>
    <path class="cls-1" d="M139.02,240.76l-.82.82c-2.01,2.01-4.48,3.45-6.95,3.45-.72,0-1.44-.16-2.16-.41-1.55,3.81-5.31,6.9-8.76,6.9-3.71,0-5.15-2.99-5.15-5.87,0-1.6.41-3.86,1.44-5.92l-1.91,1.85c-.36.36-.72.52-1.08.52-.82,0-1.6-.77-1.6-1.6,0-.36.15-.72.51-1.08l.82-.82c4.38-4.38,8.45-6.54,12.42-6.54.36,0,.41,0,.88.05.98.1,1.44.82,1.44,1.55,0,.31-.1.57-.26.82,1.91.46,2.52,2.47,2.52,4.17,0,.82-.1,1.86-.31,2.94.46.21.98.36,1.44.36,1.49,0,3.04-1.03,4.53-2.52l.82-.82c.36-.36.72-.52,1.08-.52.82,0,1.6.77,1.6,1.6,0,.36-.15.72-.51,1.08ZM125.32,237.26c0-1.08.1-1.54.41-2.11-3.66.21-7.47,5.87-7.47,10.51,0,2.01.77,2.78,2.06,2.78,2.27,0,5.2-2.52,6.34-5.98-.98-1.96-1.34-3.76-1.34-5.2Z"/>
    <path class="cls-1" d="M171.47,240.76l-.82.82c-6.29,6.29-9.89,8.04-15.45,8.04-1.24,0-2.32-.57-3.19-1.39-.36-.36-.46-.72-.46-1.08,0-.93.77-1.65,1.65-1.65.31,0,.72.1,1.03.41.21.15.31.21.46.31.31.21.62.26.93.26,1.65,0,3.19-1.39,3.19-3.35,0-2.88-1.34-4.02-1.8-6.49-1.44,1.49-2.94,2.99-4.07,4.12l-.82.82c-.36.36-.72.52-1.08.52-.82,0-1.6-.77-1.6-1.6,0-.36.15-.72.51-1.08l.82-.82c2.73-2.73,6.95-7.11,8.04-8.55.36-.51.82-.72,1.29-.72.82,0,1.55.67,1.55,1.54,0,.31-.1.62-.36.98-.51.77-1.34,2.21-1.34,3.09,0,2.78,1.96,4.64,1.96,8.19,0,.67-.1,1.34-.31,1.91,1.91-1.08,4.07-2.78,6.9-5.62l.82-.82c.36-.36.72-.52,1.08-.52.82,0,1.6.77,1.6,1.6,0,.36-.15.72-.51,1.08Z"/>
    <path class="cls-1" d="M184.71,240.76l-.82.82c-5.62,5.62-8.35,7.16-11.02,7.16-2.42,0-4.64-1.86-4.64-5.25,0-2.27,1.6-5.67,3.55-9.12h-1.29c-1.03,0-1.54-.77-1.54-1.54s.52-1.55,1.54-1.55h2.94c2.58-4.84,4.58-8.34,4.79-8.76.31-.57.77-.82,1.29-.82.82,0,1.6.62,1.6,1.49,0,.26-.05.51-.21.77l-3.97,7.31h3.71c1.03,0,1.55.77,1.55,1.55s-.52,1.54-1.55,1.54h-5.31c-3.3,5.62-4.02,7.98-4.02,9.12,0,1.8.93,2.16,1.55,2.16,1.24,0,3.19-.57,8.86-6.23l.82-.82c.36-.36.72-.52,1.08-.52.82,0,1.6.77,1.6,1.6,0,.36-.15.72-.51,1.08Z"/>
    <path class="cls-1" d="M212.47,240.76l-.82.82c-2.06,2.06-6.85,7.16-10.2,7.16-2.32,0-3.14-1.96-3.14-3.92,0-.82.15-1.8.41-2.88-3.25,3.71-6.08,7.06-8.76,7.06s-4.48-2.01-4.48-4.43c0-1.8.67-3.97,1.49-6.08l-2.27,2.27-.82.82c-.36.36-.72.52-1.08.52-.82,0-1.6-.77-1.6-1.6,0-.36.15-.72.51-1.08l.82-.82c3.14-3.14,4.33-4.43,5.31-5.51.62-.72,1.13-1.75,2.21-1.75.72,0,2.01.36,2.01,1.85,0,2.73-3.5,7.78-3.5,11.38,0,.82.46,1.34,1.39,1.34,2.83,0,9.99-9.58,11.95-13.5.21-.41.31-.82.62-1.13.26-.26.62-.36.98-.36.82,0,1.6.62,1.6,1.49,0,.46-.21.88-.36,1.29-1.8,4.58-3.35,8.86-3.35,11.13,0,.57.1.88.36.88.15,0,.36-.1.67-.26,2.21-1.13,6.34-5.31,7.06-6.03l.82-.82c.36-.36.72-.52,1.08-.52.82,0,1.6.77,1.6,1.6,0,.36-.16.72-.52,1.08Z"/>
    <path class="cls-1" d="M234.78,240.76l-.82.82c-2.11,2.11-5.67,5.62-8.71,5.62-1.75,0-2.83-.93-3.5-2.21-2.37,2.47-4.84,4.02-7.16,4.02-3.55,0-4.74-3.4-4.74-6.08,0-5.77,4.07-11.38,8.76-11.38,1.03,0,2.06.31,2.94.88.93-5.2,2.73-10.77,5.41-14.27,1.03-1.34,2.47-2.68,4.22-2.68,2.47,0,2.99,2.63,2.99,4.17,0,4.53-4.53,15.45-10.1,22.61.31,1.8,1.03,1.85,1.19,1.85,1.8,0,5.2-3.35,6.54-4.69l.82-.82c.36-.36.72-.46,1.08-.46.82,0,1.54.72,1.54,1.55,0,.36-.1.72-.46,1.08ZM218.6,234.63c-2.27,0-5.67,3.4-5.67,8.29,0,2.37.88,2.99,1.65,2.99,1.91,0,4.12-1.8,6.29-4.48-.05-.51-.05-1.03-.05-1.49,0-1.18.05-2.47.21-3.81-.82-1.19-1.7-1.49-2.42-1.49ZM230.76,218.77c-.15,0-.36.1-.67.36-3.14,2.63-5.31,12.42-5.92,16.54-.05.46-.1,1.24-.1,1.24,3.92-6.34,7.01-14.22,7.01-17.26,0-.57-.05-.88-.31-.88Z"/>
    <path class="cls-1" d="M249.46,240.76l-.82.82c-2.47,2.47-6.65,6.95-10.35,6.95-2.37,0-3.71-1.6-3.71-3.76,0-1.7.88-3.66,1.44-5.25l-1.24,1.24-.82.82c-.36.36-.72.52-1.08.52-.82,0-1.6-.77-1.6-1.6,0-.36.15-.72.51-1.08l.82-.82c2.37-2.37,4.79-5.25,5.92-6.59.16-.15.98-.57,1.19-.57.93,0,1.91.88,1.91,1.8,0,.21,0,.36-.1.57-.62,1.39-3.86,9.38-3.86,10.97,0,.62.1.67.62.67,2.37,0,6.54-4.38,8.19-6.03l.82-.82c.36-.36.72-.52,1.08-.52.82,0,1.6.77,1.6,1.6,0,.36-.15.72-.51,1.08ZM246.21,224.18l-1.39,1.39c-.36.36-.72.52-1.08.52-.82,0-1.6-.77-1.6-1.6,0-.36.15-.72.51-1.08l1.39-1.39c.36-.36.72-.51,1.08-.51.82,0,1.6.77,1.6,1.6,0,.36-.15.72-.52,1.08Z"/>
    <path class="cls-1" d="M272.95,240.76l-.82.82c-2.01,2.01-4.48,3.45-6.96,3.45-.72,0-1.44-.16-2.16-.41-1.55,3.81-5.31,6.9-8.76,6.9-3.71,0-5.15-2.99-5.15-5.87,0-1.6.41-3.86,1.44-5.92l-1.91,1.85c-.36.36-.72.52-1.08.52-.82,0-1.6-.77-1.6-1.6,0-.36.15-.72.51-1.08l.82-.82c4.38-4.38,8.45-6.54,12.42-6.54.36,0,.41,0,.88.05.98.1,1.44.82,1.44,1.55,0,.31-.1.57-.26.82,1.91.46,2.52,2.47,2.52,4.17,0,.82-.1,1.86-.31,2.94.46.21.98.36,1.44.36,1.49,0,3.04-1.03,4.53-2.52l.82-.82c.36-.36.72-.52,1.08-.52.82,0,1.6.77,1.6,1.6,0,.36-.15.72-.51,1.08ZM259.24,237.26c0-1.08.1-1.54.41-2.11-3.66.21-7.47,5.87-7.47,10.51,0,2.01.77,2.78,2.06,2.78,2.27,0,5.2-2.52,6.34-5.98-.98-1.96-1.34-3.76-1.34-5.2Z"/>
  </g>
  <g>
    <path class="cls-2" d="M150.53,273c-.4,1.02-.81,2.03-1.15,2.92.96-.04,1.88-.47,2.62-1.21l.32-.28c.13-.13.26-.19.4-.19.3,0,.58.28.58.58,0,.13-.06.26-.19.4l-.32.28c-.92.92-2.32,1.45-2.94,1.51.32.57.47,1.22.47,1.88,0,2.18-1.58,4.43-2.99,4.43-.79,0-1.05-.7-1.05-1.38,0-1.11,1.05-4.01,2.01-6.44l-.02.02c-.13.13-.26.19-.4.19-.3,0-.58-.28-.58-.58,0-.13.06-.26.19-.4l.3-.3c.41-.41,1.09-1.19,1.83-2.11.13-.3.21-.49.23-.53.38-.98,1.69-4.69,2.64-5.44.11-.09.32-.23.57-.23.55,0,.75.49.75.94,0,1.45-1.69,3.97-3.26,5.93ZM148.76,277.54c-.28.73-.45,1.22-.51,1.36-.62,1.56-.85,2.52-.85,3.05,0,.15.02.25.13.25.3,0,1.64-1.19,1.64-3.31,0-.56-.19-1.02-.41-1.34Z"/>
    <path class="cls-2" d="M161.68,275.22l-.3.3c-.73.73-1.64,1.26-2.54,1.26-.26,0-.53-.06-.79-.15-.56,1.39-1.94,2.52-3.2,2.52-1.36,0-1.88-1.09-1.88-2.15,0-.58.15-1.41.53-2.17l-.7.68c-.13.13-.26.19-.4.19-.3,0-.58-.28-.58-.58,0-.13.06-.26.19-.4l.3-.3c1.6-1.6,3.09-2.39,4.54-2.39.13,0,.15,0,.32.02.36.04.53.3.53.57,0,.11-.04.21-.09.3.7.17.92.9.92,1.53,0,.3-.04.68-.11,1.07.17.08.36.13.53.13.55,0,1.11-.38,1.66-.92l.3-.3c.13-.13.26-.19.4-.19.3,0,.58.28.58.58,0,.13-.06.26-.19.4ZM156.67,273.94c0-.39.04-.56.15-.77-1.34.08-2.73,2.15-2.73,3.84,0,.73.28,1.02.75,1.02.83,0,1.9-.92,2.32-2.18-.36-.72-.49-1.38-.49-1.9Z"/>
    <path class="cls-2" d="M169.36,275.22l-.3.3c-.92.92-3.11,2.99-4.56,2.99-.7,0-1.22-.45-1.22-1.24,0-1.04,1.34-2.28,1.62-3.39.02-.09.04-.17.04-.23,0-.09-.04-.13-.13-.19-.49-.24-.75-.19-1.24-.38-.68.9-1.24,1.49-1.88,2.13l-.3.3c-.13.13-.26.19-.4.19-.3,0-.58-.28-.58-.58,0-.13.06-.26.19-.4l.3-.3c.6-.6,1.21-1.26,1.73-2-.13-.15-.3-.51-.3-.75,0-.4.36-.62.7-.62.32,0,.62.21.62.6,0,.06,0,.13-.02.21.62.64,2.47.28,2.47,1.68,0,1.47-1.68,3.11-1.68,3.73,0,.09.02.11.09.11,1,0,3.18-2.07,3.77-2.66l.3-.3c.13-.13.26-.19.4-.19.3,0,.58.28.58.58,0,.13-.06.26-.19.4Z"/>
    <path class="cls-2" d="M183.59,275.22l-.3.3c-.71.72-2.64,2.82-3.78,2.82-.94,0-1.09-.77-1.28-1.51-.17-.64-.23-.68-.83-.72-.4-.02-.6-.3-.6-.56s.19-.51.57-.57c1.28-.17,2.73-1.04,2.73-1.96,0-.25-.15-.43-.43-.43-1.37,0-3.97,4.48-4.42,5.29-.13.24-.34.34-.53.34-.28,0-.55-.23-.55-.57,0-.08.02-.15.06-.24.15-.45.41-1.51.77-2.79-.21.23-.4.43-.55.58l-.3.3c-.13.13-.26.19-.4.19-.3,0-.58-.28-.58-.58,0-.13.06-.26.19-.4l.3-.3c.4-.4,1.24-1.36,2.13-2.52.94-3.13,2.17-6.35,3.29-6.35.49,0,.72.43.72.87,0,1.6-1.49,4.01-2.96,5.97-.21.7-.38,1.3-.49,1.68.73-1,1.94-2.6,3.31-2.6,1,0,1.56.81,1.56,1.56,0,1.3-1.13,2.17-2.24,2.66.26.4.26.87.41,1.28.04.13.09.19.19.19.06,0,.11-.02.21-.06.79-.41,2.39-2.05,2.71-2.37l.3-.3c.13-.13.26-.19.4-.19.3,0,.58.28.58.58,0,.13-.06.26-.19.4Z"/>
    <path class="cls-2" d="M188.96,275.22l-.3.3c-.9.9-2.43,2.54-3.79,2.54-.87,0-1.36-.58-1.36-1.37,0-.62.32-1.34.53-1.92-.15.15-.3.3-.45.45l-.3.3c-.13.13-.26.19-.4.19-.3,0-.58-.28-.58-.58,0-.13.06-.26.19-.4l.3-.3c.87-.87,1.75-1.92,2.17-2.41.06-.06.36-.21.43-.21.34,0,.7.32.7.66,0,.08,0,.13-.04.21-.23.51-1.41,3.43-1.41,4.01,0,.23.04.24.23.24.87,0,2.39-1.6,2.99-2.2l.3-.3c.13-.13.26-.19.39-.19.3,0,.58.28.58.58,0,.13-.06.26-.19.4ZM187.77,269.16l-.51.51c-.13.13-.26.19-.4.19-.3,0-.58-.28-.58-.58,0-.13.06-.26.19-.4l.51-.51c.13-.13.26-.19.4-.19.3,0,.58.28.58.58,0,.13-.06.26-.19.4Z"/>
    <path class="cls-2" d="M197.11,275.22l-.3.3c-.77.77-2.07,2.05-3.18,2.05-.64,0-1.04-.34-1.28-.81-.87.9-1.77,1.47-2.62,1.47-1.3,0-1.73-1.24-1.73-2.22,0-2.11,1.49-4.16,3.2-4.16.38,0,.75.11,1.07.32.34-1.9,1-3.94,1.98-5.22.38-.49.9-.98,1.54-.98.9,0,1.09.96,1.09,1.53,0,1.66-1.66,5.65-3.69,8.27.11.66.38.68.43.68.66,0,1.9-1.22,2.39-1.71l.3-.3c.13-.13.26-.17.4-.17.3,0,.56.26.56.57,0,.13-.04.26-.17.4ZM191.2,272.98c-.83,0-2.07,1.24-2.07,3.03,0,.87.32,1.09.6,1.09.7,0,1.51-.66,2.3-1.64-.02-.19-.02-.38-.02-.55,0-.43.02-.9.08-1.39-.3-.43-.62-.55-.88-.55ZM195.64,267.18c-.06,0-.13.04-.25.13-1.15.96-1.94,4.54-2.17,6.04-.02.17-.04.45-.04.45,1.43-2.32,2.56-5.2,2.56-6.31,0-.21-.02-.32-.11-.32Z"/>
    <path class="cls-2" d="M203.89,275.22l-.3.3c-2.3,2.3-3.62,2.94-5.65,2.94-.45,0-.85-.21-1.17-.51-.13-.13-.17-.26-.17-.4,0-.34.28-.6.6-.6.11,0,.26.04.38.15.08.06.11.08.17.11.11.08.23.09.34.09.6,0,1.17-.51,1.17-1.22,0-1.05-.49-1.47-.66-2.37-.53.55-1.07,1.09-1.49,1.51l-.3.3c-.13.13-.26.19-.4.19-.3,0-.58-.28-.58-.58,0-.13.06-.26.19-.4l.3-.3c1-1,2.54-2.6,2.94-3.13.13-.19.3-.26.47-.26.3,0,.57.25.57.57,0,.11-.04.23-.13.36-.19.28-.49.81-.49,1.13,0,1.02.72,1.69.72,2.99,0,.24-.04.49-.11.7.7-.4,1.49-1.02,2.52-2.05l.3-.3c.13-.13.26-.19.39-.19.3,0,.58.28.58.58,0,.13-.06.26-.19.4Z"/>
    <path class="cls-2" d="M219.78,273.79c-1.73,0-3.46.15-5.18.3-.47,1.24-.98,2.54-1.54,3.88-.24.83-.6,1.66-1.04,2.35-.13.23-.34.3-.53.3-.28,0-.55-.23-.55-.55,0-.09.02-.19.08-.3.32-.7.64-1.41.94-2.13.13-.49.23-1,.23-1.45,0-.77-.21-1.45-.85-1.86-.62.04-1.22.06-1.85.06-.47,0-1.05-.21-1.05-.79s.62-.81,1.09-.81c.77,0,1.45.13,2,.38.72-.06,1.47-.11,2.3-.19.9-2.37,1.6-4.37,2.13-5.42.11-.23.3-.32.49-.32.3,0,.58.23.58.55,0,.08-.02.17-.06.26-.47.96-1.11,2.71-1.9,4.82,1.45-.11,3.05-.21,4.71-.21.38,0,.56.28.56.57s-.19.56-.56.56ZM212.81,274.25c.11.19.23.38.3.6l.25-.64-.55.04Z"/>
    <path class="cls-2" d="M226.63,273c-.4,1.02-.81,2.03-1.15,2.92.96-.04,1.88-.47,2.62-1.21l.32-.28c.13-.13.26-.19.4-.19.3,0,.58.28.58.58,0,.13-.06.26-.19.4l-.32.28c-.92.92-2.32,1.45-2.94,1.51.32.57.47,1.22.47,1.88,0,2.18-1.58,4.43-2.99,4.43-.79,0-1.05-.7-1.05-1.38,0-1.11,1.05-4.01,2.01-6.44l-.02.02c-.13.13-.26.19-.4.19-.3,0-.58-.28-.58-.58,0-.13.06-.26.19-.4l.3-.3c.42-.41,1.09-1.19,1.83-2.11.13-.3.21-.49.23-.53.38-.98,1.69-4.69,2.64-5.44.11-.09.32-.23.57-.23.55,0,.75.49.75.94,0,1.45-1.69,3.97-3.26,5.93ZM224.86,277.54c-.28.73-.45,1.22-.51,1.36-.62,1.56-.85,2.52-.85,3.05,0,.15.02.25.13.25.3,0,1.64-1.19,1.64-3.31,0-.56-.19-1.02-.41-1.34Z"/>
    <path class="cls-2" d="M236.76,275.22c-.23.23-.45.47-.68.7-.72.73-1.81,1.83-2.64,1.83s-1.11-.83-1.11-1.54v-.06c-.98,1.15-2.09,2.15-2.99,2.15-1.13,0-1.41-1.09-1.41-1.79,0-1.96,1.75-4.44,3.88-4.44.62,0,1.17.26,1.56.79.09-.15.19-.28.3-.41.13-.17.28-.25.43-.25.11,0,.24.04.34.11.15.11.24.28.24.47,0,.11-.02.21-.09.32l-.38.53c-.58.83-.75,1.84-.75,2.56,0,.26,0,.38.09.38.06,0,.15-.06.3-.15.47-.34,1.13-.98,1.53-1.39q.43-.43.58-.58c.13-.13.26-.19.4-.19.3,0,.58.28.58.58,0,.13-.06.26-.19.4ZM231.81,273.19c-1.3,0-2.75,1.77-2.75,3.31,0,.62.21.66.28.66.75,0,2.28-1.88,3.33-3.31-.15-.36-.43-.66-.87-.66Z"/>
    <path class="cls-2" d="M250.03,275.22l-.3.3c-.64.64-2.41,2.67-3.43,2.67-.62,0-1.11-.51-1.11-1.07,0-1.17,1.17-2.07,1.17-3.22,0-.21-.19-.41-.45-.41-1.56,0-3.05,2.92-3.79,4.12-.11.19-.3.26-.47.26-.3,0-.64-.26-.64-.58,0-.09.02-.17.06-.26.45-.92,1.3-2.6,1.3-3.62,0-.55-.25-.68-.55-.68-1.39,0-3.58,4.01-4.29,5.08-.11.19-.28.25-.45.25-.3,0-.6-.25-.6-.56,0-.09.04-.21.11-.32.62-.94,1.05-1.92,1.22-2.99-.34.36-.73.73-1.04,1.04l-.3.3c-.13.13-.26.19-.4.19-.3,0-.58-.28-.58-.58,0-.13.06-.26.19-.4l.3-.3c.51-.51,1.15-1.19,1.6-1.7.17-.19.41-.32.68-.32.53,0,.75.45.75.83,0,.09-.02.26-.06.41.87-1.17,1.84-2.05,2.86-2.05s1.68.66,1.68,1.81v.17c.7-.72,1.49-1.22,2.41-1.22.79,0,1.58.62,1.58,1.54,0,1.15-.66,1.81-1,2.58-.08.17-.11.28-.11.36,0,.09.06.11.17.11.06,0,.21-.11.43-.3.7-.56,1.37-1.34,1.96-1.92l.3-.3c.13-.13.26-.19.4-.19.3,0,.58.28.58.58,0,.13-.06.26-.19.4Z"/>
    <path class="cls-2" d="M255.4,275.22l-.3.3c-.9.9-2.43,2.54-3.79,2.54-.87,0-1.36-.58-1.36-1.37,0-.62.32-1.34.53-1.92-.15.15-.3.3-.45.45l-.3.3c-.13.13-.26.19-.4.19-.3,0-.58-.28-.58-.58,0-.13.06-.26.19-.4l.3-.3c.87-.87,1.75-1.92,2.17-2.41.06-.06.36-.21.43-.21.34,0,.7.32.7.66,0,.08,0,.13-.04.21-.23.51-1.41,3.43-1.41,4.01,0,.23.04.24.23.24.87,0,2.39-1.6,2.99-2.2l.3-.3c.13-.13.26-.19.4-.19.3,0,.58.28.58.58,0,.13-.06.26-.19.4ZM254.21,269.16l-.51.51c-.13.13-.26.19-.4.19-.3,0-.58-.28-.58-.58,0-.13.06-.26.19-.4l.51-.51c.13-.13.26-.19.4-.19.3,0,.58.28.58.58,0,.13-.06.26-.19.4Z"/>
    <path class="cls-2" d="M256.36,274.25c-.17.73-.25,1.43-.25,1.98,0,.21,0,1.17.41,1.17.66,0,2.67-2.33,2.99-2.66l.3-.3c.13-.13.26-.19.4-.19.3,0,.58.28.58.58,0,.13-.06.26-.19.4l-.3.3c-.81.81-2.49,2.99-3.79,2.99s-1.54-1.32-1.54-2.3c0-.17,0-.4.04-.64-.11.08-.21.13-.32.13-.3,0-.58-.28-.58-.58,0-.13.06-.26.19-.4l.3-.3c.23-.23.49-.51.81-.83.81-3.29,2.67-8.06,4.8-8.06.87,0,1.15.68,1.15,1.41,0,1.86-2.5,4.71-5.01,7.29ZM260.22,266.69l-.02-.06c-1.05,0-2.86,4.39-3.16,5.25,1.58-1.73,3.2-3.77,3.2-4.93,0-.09,0-.19-.02-.26Z"/>
    <path class="cls-2" d="M270.03,275.22c-.09.09-.26.26-.3.3-1.39,1.39-3.01,2.47-4.69,3.45-.51,1.09-1.09,2.15-1.75,3.22-.66,1.05-1.6,1.54-2.39,1.54s-1.51-.53-1.51-1.51c0-.81.58-1.62,1.66-2.26,1.04-.62,2.09-1.19,3.12-1.79.36-.79.7-1.58,1-2.43-.9,1.07-1.96,1.92-3.01,1.92-.94,0-1.58-.66-1.58-1.64,0-.26.04-.55.11-.87l-.38.36c-.13.11-.26.19-.4.19-.3,0-.58-.28-.58-.58,0-.13.06-.26.19-.4l.3-.3c1.56-1.56,2.03-2.3,2.58-3.14.11-.19.28-.26.45-.26.3,0,.6.23.6.55,0,.11-.06.23-.11.32-1.11,1.79-1.64,3.35-1.64,4.14,0,.4.17.51.45.51,1.51,0,3.6-3.5,4.24-4.67.09-.23.28-.32.49-.32.28,0,.58.21.58.55,0,.06,0,.11-.02.17-.47,1.71-.98,3.33-1.62,4.92,1.11-.72,2.17-1.51,3.11-2.45l.3-.3c.13-.13.26-.19.4-.19.3,0,.58.28.58.58,0,.13-.08.26-.19.4ZM261.61,280.95c-.92.55-1.09,1.05-1.09,1.28,0,.21.15.4.45.4,1,0,2.3-2.64,2.3-2.64-.55.32-1.11.64-1.66.96Z"/>
  </g>
  <g>
    <path class="cls-2" d="M182.36,110.37c-.47.06-.94-.07-1.32-.36-.37-.28-.62-.7-.68-1.18,0,0-.47-2.47-1.16-6.18-.03-.19-.07-.38-.11-.58v-.87c-.18-.93-.36-1.94-.56-3-1.18-6.35-2.68-14.53-3.76-20.7-2.07-11.65-4.86-26.47-4.86-26.47l-1.64-.17s-.12.37-.37,1.06c-.82,2.34-2.96,8.38-6.08,16.59-.51,1.32-1.04,2.71-1.59,4.15-6.21,16.06-15.45,38.43-25.68,58.08-.88,1.7-1.76,3.39-2.64,5.05,0,0-1.12,2.17-2.81,5.27-.08.14-.16.28-.24.43-.1.19-.2.37-.3.56,0,.02-.01.03-.02.04,0,.02-.01.03-.02.05-.23.4-.45.81-.68,1.23-.15.29-.31.58-.47.87,0,0-.01.02-.04.08-.02.04-.05.09-.09.17-.05.09-.11.22-.19.36l-.39.72-1.01,1.85-.36.65s-3.26,5.85-5.7,9.71c-.06.09-.12.19-.18.3-2.73,4.22-13.79,19.77-16.67,23.29-.11.13-.2.24-.28.34,0,0-.01.01-.01.02-5.45,6.42-11.46,12.37-17.69,16.57-1.07.73-2.15,1.4-3.24,2.01-1.6.91-3.22,1.69-4.83,2.32-1.58.67-3.21,1.25-4.88,1.72-1.47.42-2.99.76-4.53,1-.04.01-.07.02-.11.02-2.06.34-4.17.52-6.33.53-3.68.02-7.25-.43-10.65-1.32h.47s0,0-.01,0c-2.07-.52-4.06-1.21-5.98-2.04-2.65-1.14-5.14-2.55-7.47-4.2-4.56-3.22-8.43-7.35-11.34-12.11-3.42-5.58-5.54-12.05-5.93-18.97,2.09,19.12,18.37,33.99,38.14,33.99.43,0,.86,0,1.29-.02.2,0,.4,0,.61,0,.33,0,.66-.01.99-.02.3-.02.6-.03.9-.05.27-.02.55-.04.84-.06.69-.05,1.37-.13,2.05-.23.27-.04.53-.08.79-.12.3-.05.6-.11.9-.17.3-.06.6-.12.9-.18.22-.05.43-.1.65-.15.16-.04.31-.07.47-.11.12-.04.24-.07.36-.1.15-.04.3-.08.44-.12.46-.14.92-.27,1.38-.43.35-.11.69-.22,1.03-.35.03-.01.05-.02.08-.03.36-.12.7-.27,1.04-.4.11-.04.21-.08.31-.13.35-.14.7-.29,1.04-.45,0,0,.02-.01.06-.03.02-.01.05-.02.09-.05h.01c.08-.04.17-.08.24-.12.12-.06.25-.12.38-.18.03-.02.07-.04.1-.05.31-.15.62-.3.93-.47.09-.05.18-.09.27-.15.25-.13.51-.27.77-.43.09-.05.19-.11.28-.16.28-.15.55-.31.81-.49.08-.05.17-.1.24-.15.32-.2.64-.42.95-.62.14-.08.28-.18.43-.28.47-.38.96-.77,1.44-1.18.02-.01.03-.02.05-.04l.02-.02c.06-.05.12-.09.18-.15.88-.75,1.76-1.54,2.64-2.37.05-.05.1-.09.15-.15.25-.24.49-.48.74-.72l.04-.04c.42-.42.84-.84,1.26-1.28.08-.09.17-.17.26-.26.01,0,.02-.02.02-.03,2.86-2.99,5.75-6.48,8.71-10.51.02-.02.04-.05.05-.07,2.49-3.28,5.15-7.06,7.94-11.44h0c2.2-3.47,4.48-7.3,6.83-11.54,0,0,.95-2.28,4.41-8.79.66-1.21,1.29-2.43,1.94-3.65.08-.07.14-.14.19-.24.44-.87.88-1.74,1.33-2.62.02-.04.04-.08.05-.11.15-.31.3-.62.46-.92,3.44-6.9,6.93-14.38,10.44-22.32.02-.04.03-.07.03-.07,1.03-2.35,2.07-4.74,3.11-7.16,7.09-16.61,13.43-33.28,18.64-47.79.34-.97.68-1.92,1.02-2.86,8.54-24.05,13.78-41.53,13.87-41.82.24-.81,1-1.32,1.85-1.26.85.07,1.5.7,1.61,1.54l2.49,19.34c.04.24.33,2.51.5,3.82h.02s.12.85.12.85l10,57.04.56,3.21h0s.09.52.09.52l1.14,6.55c.12.97-.56,1.86-1.53,1.98Z"/>
    <path class="cls-2" d="M271.19,171.86v-.11c-7.47.05-14.52,1.87-20.73,5.08-1.99,1.03-3.9,2.19-5.71,3.48-3.66,2.62-6.92,5.76-9.66,9.31-.52.8-1.09,1.56-1.69,2.28-4.65,5.59-11.63,9.17-19.48,9.22-12.54.08-23.04-8.89-25.27-20.8.45.02.9.02,1.35.02,14.76-.09,27.6-8.17,34.46-20.11.11-.18.2-.36.3-.54.83-1.57,1.29-3.37,1.28-5.27,0-.17,0-.34-.01-.5,0-.08,0-.17-.01-.24-.02-.17-.03-.34-.05-.51-.19-1.6-.71-3.1-1.51-4.42-1.53-2.53-5.58-5.26-10.77-5.32-.25,0-.5,0-.75,0-.28,0-.55.01-.83.02h.36c-16.96.56-30.55,14.2-31.03,31.06-2.51-.61-4.92-1.46-7.21-2.52-1.87-.86-3.66-1.86-5.37-3,.45-.83.85-1.65,1.23-2.45.58-1.16,1.07-2.26,1.48-3.21.12-.27.24-.55.35-.79.12-.27.22-.53.32-.76.04-.09.08-.19.12-.28.09-.23.17-.44.25-.61.03-.08.06-.15.08-.22.04-.1.08-.19.11-.26.01-.03.02-.05.03-.08.01-.02.02-.04.02-.06.03-.07.04-.1.04-.1.11-.27.22-.53.33-.8.52-1.37.97-2.7,1.32-4.02.05-.16.08-.32.13-.49.2-.86.31-1.76.3-2.68,0-.8-.09-1.58-.26-2.34-.05-.24-.12-.48-.18-.72-.05-.15-.09-.3-.15-.44-.01-.04-.02-.08-.04-.12-.06-.16-.12-.33-.18-.49-.08-.21-.17-.42-.26-.62-.09-.2-.2-.4-.3-.6-.07-.12-.14-.24-.21-.36-.16-.27-.34-.54-.53-.8-.09-.14-.2-.28-.31-.41-.03-.05-.06-.09-.09-.13-2.08-2.57-5.28-4.21-8.84-4.18-4.84.03-8.95,3.1-10.52,7.37-.08.21-.15.42-.21.63-.1.34-.19.68-.26,1.03-.15.75-.23,1.52-.22,2.31,0,1.11.17,2.19.49,3.21.09.26.18.53.28.79.06.16.13.32.2.48.04.09.08.18.12.27.08.16.15.32.24.47.3.6.62,1.19.97,1.78,1.88,3.47,4.27,6.64,7.06,9.39-3.14,5.13-6.78,9.92-10.85,14.31-.02.03-.05.05-.08.08-2.48,2.52-4.91,4.86-7.2,6.94h0c.47-1.19.87-2.4,1.19-3.65.69-2.59,1.06-5.32,1.06-8.13,0-.09,0-.18,0-.27h0c-.04-7.24-2.47-13.9-6.54-19.27-3.57-4.72-8.42-8.45-14.04-10.65-3.32-1.53-10.87-1.72-10.87-1.72-.3,0-.6,0-.9,0-6.95.04-13.39,2.27-18.63,6.03-.15.1-.3.21-.45.32h-.01c-.52.39-1.04.81-1.54,1.22h0s-.15.11-.15.11c-.12.11-.25.23-.37.34-.17.15-.34.3-.51.45-2.97,2.73-5.43,5.99-7.21,9.63.11-.05.23-.1.34-.15,3.02-3.23,6.74-5.77,10.95-7.39,3.25-1.26,6.77-1.96,10.47-1.98,1.23-.01,2.43.06,3.62.2,5.07.76,9.58,2.64,9.58,2.64,9.51,4.85,16.04,14.71,16.12,26.12.03,5.38-1.38,10.44-3.87,14.8-1.79,3.13-4.14,5.91-6.92,8.19-.37.31-.75.61-1.14.9.79-.26,1.57-.55,2.33-.87.04-.02.09-.04.13-.05.28-.12.57-.24.85-.37,15.28-6.76,28.32-17.65,37.72-31.24.04-.07.08-.14.14-.2.49-.71.96-1.42,1.42-2.14,4.41,3.19,9.51,5.5,15.02,6.66,2,15.84,15.58,28.04,31.93,27.94,10.7-.07,20.15-5.38,25.9-13.49.69-.85,1.34-1.75,1.95-2.66,7.11-11.24,19.61-18.73,33.89-18.83,2.37-.01,4.69.17,6.95.55-3.48-.81-7.11-1.23-10.84-1.21ZM198.47,155.13c1.67-1.18,3.5-2.16,5.43-2.91.99-.39,2-.71,3.05-.96.15-.04.29-.08.44-.11.01,0,.02,0,.04,0,.51-.11,1.04-.17,1.58-.17,4.37-.02,7.94,3.5,7.97,7.88.01,2.01-.73,3.84-1.95,5.25,0,.01-.02.02-.03.03-.18.21-.38.4-.58.59,0,0-.01,0,0,.01-.29.3-.59.58-.89.86-2.18,2.05-4.63,3.82-7.28,5.27-4.84,2.65-10.35,4.21-16.22,4.39-.27,0-.54.01-.81.01-.34,0-.68,0-1.01,0,.11-8.23,4.11-15.53,10.26-20.13Z"/>
  </g>
</svg>

