<?xml version="1.0" encoding="UTF-8"?>
<svg id="Layer_1" data-name="Layer 1" xmlns="http://www.w3.org/2000/svg" viewBox="0 0 100 100">
  <defs>
    <style>
      .cls-1 {
        fill: #fff;
      }

      .cls-2 {
        fill: #292929;
      }
    </style>
  </defs>
  <circle class="cls-1" cx="50.11" cy="50.06" r="49.89"/>
  <path class="cls-2" d="M40.46,73.76c.11-.08.22-.16.31-.25.79-.65,1.44-1.42,1.94-2.3.72-1.25,1.09-2.68,1.08-4.14-.02-2.85-1.48-5.45-3.87-6.94-1.18,1.74-3.81,5.43-4.71,6.56h0s-.2.24-.2.24c-1.93,2.27-3.82,4.04-5.61,5.24-.33.23-.68.45-1.05.65-.53.3-1.07.56-1.58.76-.52.22-1.05.41-1.59.56-.47.14-.96.24-1.45.32-.03,0-.07.01-.1.02-.67.11-1.35.16-2.04.17h-.09c-1.12,0-2.23-.14-3.3-.41h-.08l-.09-.08c-.59-.16-1.18-.37-1.75-.61-.85-.37-1.68-.83-2.45-1.37-1.51-1.06-2.76-2.4-3.71-3.97-1.15-1.87-1.82-4.02-1.94-6.22l1.64-.14c.61,5.54,5.3,9.72,10.91,9.72.12,0,.24,0,.36,0h.03s.03,0,.03,0c.05,0,.1,0,.14,0,0,0,.29,0,.29,0h.27c.07-.02.15-.02.23-.03.19-.01.38-.04.58-.06l.23-.04c.08-.01.16-.03.24-.04.09-.02.17-.03.26-.05.04,0,.2-.05.2-.05.04,0,.07-.02.11-.03l.11-.03h.02s.06-.02.1-.03c.13-.04.26-.08.39-.12h.02c.1-.04.18-.06.25-.09h.01s.05-.02.05-.02c.08-.03.16-.06.24-.09,0,0,.09-.03.09-.03,0,0,0,0,0,0h.02s.04-.02.04-.02c.09-.04.18-.08.27-.11,0,0,.01,0,.02,0l.17-.1h.04s.03-.02.04-.02c.1-.05.18-.09.25-.13l.06-.03h.02s.02-.02.02-.02c.06-.03.12-.06.18-.1l.03-.02.04-.02.06-.03c.08-.04.14-.08.19-.11l.03-.02.08-.05c.06-.04.12-.08.19-.12l.11-.07s.04-.03.06-.04c.13-.11.26-.21.4-.33l.04-.04.03-.02h0s.02,0,.02,0c.26-.22.52-.45.78-.7h0s.01-.02.01-.02c0,0,.21-.2.25-.24.13-.13.26-.26.38-.39.01-.01.08-.09.08-.09.84-.88,1.72-1.94,2.61-3.15l.02-.03c.77-1.02,1.55-2.14,2.32-3.34l.08-.12c.48-.75.95-1.53,1.41-2.34-.92.03-1.81.22-2.66.55-1.16.45-2.21,1.16-3.06,2.07l-.11.12-.14.07s-.09.04-.14.06l-2.02.85.96-1.97c.59-1.21,1.4-2.28,2.4-3.21l.17-.15.15-.14.06-.04c.13-.11.29-.23.45-.36l.03-.02c.05-.04.11-.08.17-.12,1.76-1.26,3.82-1.94,5.98-2,.07-.13.44-.83.44-.83l.03-.03.08-.16c.09-.18.18-.36.27-.54l.02-.03c.04-.09.09-.19.15-.29,1.03-2.08,2.11-4.37,3.19-6.82,0-.01.01-.02.02-.03.35-.8.66-1.51.95-2.18,1.9-4.46,3.83-9.39,5.71-14.65.1-.29.21-.59.31-.88,2.38-6.71,3.95-11.82,4.24-12.77v-.05c.19-.57.71-.97,1.32-.97.04,0,.07,0,.11,0,.65.05,1.16.54,1.25,1.18l.77,5.95s.05.37.09.7l.07.46.03.25,3.07,17.52.18,1.02.02.12.35,2.04v.02c.05.36-.05.72-.27,1.01-.22.29-.55.47-.91.52-.06,0-.12.01-.18.01-.3,0-.59-.1-.83-.28-.28-.22-.47-.53-.52-.88-.02-.13-.16-.85-.35-1.88v-.02s-.02-.09-.03-.14l-.02-.08v-.27c-.04-.21-.08-.44-.12-.67l-.03-.18c-.33-1.8-.82-4.43-1.16-6.37-.36-2.05-.8-4.44-1.11-6.09-.33.91-.76,2.09-1.29,3.48-.09.23-.49,1.28-.49,1.28-1.86,4.8-4.74,11.82-7.93,17.94-.27.52-.54,1.04-.81,1.56,0,0-.35.68-.87,1.63l-.09.16s-.04.08-.06.11c-.01.03-.03.06-.05.09-.03.05-.16.28-.19.35-.05.09-.09.18-.14.26,0,0-.03.05-.03.05-.02.04-.04.08-.07.14l-.11.21c1.5.74,2.8,1.82,3.82,3.17,1.41,1.86,2.16,4.07,2.18,6.4,0,.04,0,.09,0,.13,0,.35-.02.71-.06,1.06.06-.06.19-.19.19-.19,1.07-1.16,2.04-2.41,2.89-3.72-.72-.79-1.34-1.65-1.85-2.59-.11-.18-.21-.37-.31-.57-.03-.05-.05-.1-.07-.15-.02-.05-.05-.09-.07-.14-.03-.06-.05-.12-.07-.18-.03-.07-.06-.15-.08-.24l-.02-.05c-.12-.39-.18-.8-.19-1.22,0-.29.03-.59.08-.88.03-.13.06-.26.1-.39.03-.09.05-.17.08-.24.61-1.66,2.22-2.79,4-2.8h.03c1.3,0,2.51.58,3.33,1.59.02.02.03.04.05.06.04.05.08.1.12.15.06.08.13.18.2.3.03.04.06.09.08.15.03.06.07.14.11.22.04.08.07.15.1.23.02.04.04.09.05.14v.02s.02.05.03.07c.02.04.03.09.05.14v.04c.04.09.06.17.08.26.06.29.1.59.1.89,0,.34-.04.68-.11,1.02l-.02.09s-.02.06-.03.1c-.11.42-.25.85-.43,1.31l-.1.23s-.02.06-.03.07c0,.02-.06.14-.06.14v.03s-.02.03-.02.03c-.01.02-.02.05-.03.08l-.04.1s-.11.27-.13.32l-.02.05c-.03.07-.06.14-.09.21-.15.34-.31.69-.47,1.01-.01.03-.03.06-.04.09.3.17.61.33.92.48.37.17.75.32,1.13.45.65-5.09,4.92-9.08,10.15-9.3h0s.07,0,.07,0c.07,0,.13,0,.2,0,.08,0,.17,0,.25,0,1.92.02,3.4,1.04,4,2.03.31.52.5,1.08.58,1.69,0,.03,0,.08.01.13v.06s.01.08.01.12c0,.06,0,.11,0,.17,0,.69-.16,1.38-.49,2l-.04.08s-.05.09-.07.13c-2.21,3.84-6.25,6.32-10.66,6.56.95,2.81,3.61,4.77,6.66,4.77h.05c2.08-.01,4.03-.94,5.36-2.54.17-.2.32-.41.46-.63l.02-.03.02-.03c.9-1.16,1.95-2.18,3.14-3.03.59-.42,1.21-.8,1.86-1.13,2.1-1.08,4.37-1.64,6.75-1.65h.83s0,.05,0,.05c.91.04,1.81.17,2.7.38l-.32,1.61c-.63-.11-1.28-.16-1.93-.16h-.06c-3.97.03-7.61,2.05-9.73,5.41h0c-.21.33-.42.62-.63.88-1.98,2.78-5.2,4.45-8.61,4.47h-.07c-5.16,0-9.57-3.72-10.48-8.74-1.3-.33-2.53-.86-3.66-1.58h0s-.03.04-.03.04c-3,4.34-7.13,7.76-11.93,9.89-.09.04-.19.09-.28.13h-.03c-.25.12-.51.22-.78.31l-.75-1.44ZM64.4,58.9c-1.53,1.15-2.5,2.82-2.75,4.68,1.51-.09,2.94-.51,4.27-1.23.75-.41,1.45-.92,2.07-1.5.02-.01.03-.03.05-.04v-.08s.27-.18.27-.18c.03-.03.06-.05.08-.08l.03-.03c.25-.3.39-.67.38-1.05,0-.88-.73-1.6-1.61-1.6v-.82.82c-.12,0-.22.01-.32.03l-.08.02h-.01s-.04.01-.04.01c-.28.07-.56.15-.83.26-.52.2-1.02.47-1.49.8Z"/>
</svg>